# xmcd
#
# Track frame offsets: 
#        150
#        17520
#        59375
#        79782
#        105347
#        138337
#        166577
#        184232
#        213317
#        257535
#
# Disc length: 3555 seconds
#
# Revision: 3
# Processed by: cddbd v1.5.1PL0 Copyright (c) Steve Scherf et al.
# Submitted via: ExactAudioCopy v0.95a5
#
DISCID=760de10a
DTITLE=Thelonious Monk - This Is Jazz, Vol 5
DYEAR=1996
DGENRE=Jazz
TTITLE0='Round Midnight
TTITLE1=Well You Needn't
TTITLE2=Bemsha Swing
TTITLE3=Ruby, My Dear
TTITLE4=Straight, No Chaser
TTITLE5=Blue Monk
TTITLE6=Rhythm-A-Ning
TTITLE7=Monk's Dream
TTITLE8=Misterioso
TTITLE9=Epistrophy
EXTD=
EXTT0=
EXTT1=
EXTT2=
EXTT3=
EXTT4=
EXTT5=
EXTT6=
EXTT7=
EXTT8=
EXTT9=
PLAYORDER=
